<mxfile host="app.diagrams.net" modified="2022-04-21T08:07:48.639Z" agent="5.0 (Windows NT 10.0; Win64; x64) AppleWebKit/537.36 (KHTML, like Gecko) Chrome/100.0.4896.127 Safari/537.36" etag="pNx_NSuc5g0EF1jH4ywR" version="17.4.6" type="github">
  <diagram id="C3PEHFfEE4Fk-dZleq14" name="Page-1">
    <mxGraphModel dx="1038" dy="539" grid="1" gridSize="10" guides="1" tooltips="1" connect="1" arrows="1" fold="1" page="1" pageScale="1" pageWidth="827" pageHeight="1169" math="0" shadow="0">
      <root>
        <mxCell id="0" />
        <mxCell id="1" parent="0" />
        <mxCell id="XuoVblz_ZNuMy1D8i6sK-19" value="&lt;h1&gt;&lt;font style=&quot;font-size: 24px&quot;&gt;1)&lt;/font&gt;&lt;font style=&quot;font-size: 20px&quot;&gt; &lt;/font&gt;&lt;font style=&quot;font-size: 24px&quot;&gt;Requirement&lt;/font&gt;&lt;/h1&gt;&lt;h1 style=&quot;font-size: 20px&quot;&gt;&lt;ul&gt;&lt;li style=&quot;text-align: justify&quot;&gt;&lt;font style=&quot;font-size: 20px&quot;&gt;&lt;span style=&quot;font-weight: normal&quot;&gt;Write a &lt;/span&gt;&lt;span style=&quot;font-weight: 400&quot;&gt;program&lt;/span&gt;&lt;span style=&quot;font-weight: normal&quot;&gt;&amp;nbsp;that accept any two numbers then print the sum and the product of the numbers.&lt;/span&gt;&lt;/font&gt;&lt;/li&gt;&lt;li style=&quot;font-size: 20px&quot;&gt;&lt;/li&gt;&lt;/ul&gt;&lt;/h1&gt;" style="text;html=1;strokeColor=none;fillColor=none;spacing=5;spacingTop=-20;whiteSpace=wrap;overflow=hidden;rounded=0;" vertex="1" parent="1">
          <mxGeometry x="50" y="110" width="710" height="130" as="geometry" />
        </mxCell>
        <mxCell id="XuoVblz_ZNuMy1D8i6sK-20" value="&lt;b&gt;&lt;font style=&quot;font-size: 18px&quot;&gt;SUM AND PRODUCT OF TWO NUMBERS&lt;/font&gt;&lt;/b&gt;" style="text;html=1;strokeColor=none;fillColor=#f5f5f5;align=center;verticalAlign=middle;whiteSpace=wrap;rounded=0;fontColor=#333333;" vertex="1" parent="1">
          <mxGeometry x="50" y="50" width="760" height="30" as="geometry" />
        </mxCell>
        <mxCell id="XuoVblz_ZNuMy1D8i6sK-21" value="&lt;h1&gt;&lt;font style=&quot;font-size: 24px&quot;&gt;3) Flowchart&lt;/font&gt;&lt;/h1&gt;" style="text;html=1;strokeColor=none;fillColor=none;align=left;verticalAlign=middle;whiteSpace=wrap;rounded=0;fontSize=18;" vertex="1" parent="1">
          <mxGeometry x="50" y="500" width="210" height="30" as="geometry" />
        </mxCell>
        <mxCell id="XuoVblz_ZNuMy1D8i6sK-22" value="input a, b" style="shape=parallelogram;perimeter=parallelogramPerimeter;whiteSpace=wrap;html=1;fixedSize=1;fontSize=16;" vertex="1" parent="1">
          <mxGeometry x="180" y="606" width="164" height="30" as="geometry" />
        </mxCell>
        <mxCell id="XuoVblz_ZNuMy1D8i6sK-23" value="" style="endArrow=classic;html=1;rounded=0;fontSize=16;entryX=0.5;entryY=0;entryDx=0;entryDy=0;exitX=0.5;exitY=1;exitDx=0;exitDy=0;" edge="1" parent="1" source="XuoVblz_ZNuMy1D8i6sK-35" target="XuoVblz_ZNuMy1D8i6sK-22">
          <mxGeometry width="50" height="50" relative="1" as="geometry">
            <mxPoint x="262" y="580" as="sourcePoint" />
            <mxPoint x="357" y="506" as="targetPoint" />
          </mxGeometry>
        </mxCell>
        <mxCell id="XuoVblz_ZNuMy1D8i6sK-24" value="sum = a + b" style="rounded=0;whiteSpace=wrap;html=1;fontSize=16;" vertex="1" parent="1">
          <mxGeometry x="186" y="666" width="150" height="30" as="geometry" />
        </mxCell>
        <mxCell id="XuoVblz_ZNuMy1D8i6sK-25" value="" style="endArrow=classic;html=1;rounded=0;fontSize=16;entryX=0.5;entryY=0;entryDx=0;entryDy=0;exitX=0.5;exitY=1;exitDx=0;exitDy=0;" edge="1" parent="1" source="XuoVblz_ZNuMy1D8i6sK-22" target="XuoVblz_ZNuMy1D8i6sK-24">
          <mxGeometry width="50" height="50" relative="1" as="geometry">
            <mxPoint x="307" y="556" as="sourcePoint" />
            <mxPoint x="357" y="506" as="targetPoint" />
          </mxGeometry>
        </mxCell>
        <mxCell id="XuoVblz_ZNuMy1D8i6sK-26" value="product = a * b" style="rounded=0;whiteSpace=wrap;html=1;fontSize=16;" vertex="1" parent="1">
          <mxGeometry x="187" y="726" width="150" height="30" as="geometry" />
        </mxCell>
        <mxCell id="XuoVblz_ZNuMy1D8i6sK-27" value="" style="endArrow=classic;html=1;rounded=0;fontSize=16;" edge="1" parent="1" source="XuoVblz_ZNuMy1D8i6sK-24" target="XuoVblz_ZNuMy1D8i6sK-26">
          <mxGeometry width="50" height="50" relative="1" as="geometry">
            <mxPoint x="307" y="556" as="sourcePoint" />
            <mxPoint x="357" y="506" as="targetPoint" />
          </mxGeometry>
        </mxCell>
        <mxCell id="XuoVblz_ZNuMy1D8i6sK-28" value="print sum" style="shape=display;whiteSpace=wrap;html=1;fontSize=16;" vertex="1" parent="1">
          <mxGeometry x="190" y="786" width="130" height="40" as="geometry" />
        </mxCell>
        <mxCell id="XuoVblz_ZNuMy1D8i6sK-29" value="" style="endArrow=classic;html=1;rounded=0;fontSize=16;entryX=0;entryY=0;entryDx=71.25;entryDy=0;entryPerimeter=0;exitX=0.5;exitY=1;exitDx=0;exitDy=0;" edge="1" parent="1" source="XuoVblz_ZNuMy1D8i6sK-26" target="XuoVblz_ZNuMy1D8i6sK-28">
          <mxGeometry width="50" height="50" relative="1" as="geometry">
            <mxPoint x="307" y="716" as="sourcePoint" />
            <mxPoint x="357" y="666" as="targetPoint" />
          </mxGeometry>
        </mxCell>
        <mxCell id="XuoVblz_ZNuMy1D8i6sK-30" value="print product" style="shape=display;whiteSpace=wrap;html=1;fontSize=16;" vertex="1" parent="1">
          <mxGeometry x="190" y="855" width="130" height="40" as="geometry" />
        </mxCell>
        <mxCell id="XuoVblz_ZNuMy1D8i6sK-31" value="" style="endArrow=classic;html=1;rounded=0;fontSize=16;entryX=0;entryY=0;entryDx=71.25;entryDy=0;entryPerimeter=0;exitX=0;exitY=0;exitDx=71.25;exitDy=40;exitPerimeter=0;" edge="1" parent="1" source="XuoVblz_ZNuMy1D8i6sK-28" target="XuoVblz_ZNuMy1D8i6sK-30">
          <mxGeometry width="50" height="50" relative="1" as="geometry">
            <mxPoint x="307" y="716" as="sourcePoint" />
            <mxPoint x="357" y="666" as="targetPoint" />
          </mxGeometry>
        </mxCell>
        <mxCell id="XuoVblz_ZNuMy1D8i6sK-32" value="" style="endArrow=classic;html=1;rounded=0;fontSize=16;entryX=0.5;entryY=0;entryDx=0;entryDy=0;exitX=0;exitY=0;exitDx=71.25;exitDy=40;exitPerimeter=0;" edge="1" parent="1" source="XuoVblz_ZNuMy1D8i6sK-30" target="XuoVblz_ZNuMy1D8i6sK-36">
          <mxGeometry width="50" height="50" relative="1" as="geometry">
            <mxPoint x="307" y="716" as="sourcePoint" />
            <mxPoint x="261" y="926" as="targetPoint" />
          </mxGeometry>
        </mxCell>
        <mxCell id="XuoVblz_ZNuMy1D8i6sK-33" value="&lt;h1&gt;&lt;font style=&quot;font-size: 24px&quot;&gt;2) Algorithm&lt;/font&gt;&lt;/h1&gt;&lt;h1 style=&quot;font-size: 20px&quot;&gt;&lt;ul&gt;&lt;li&gt;&lt;font style=&quot;font-size: 20px&quot;&gt;Step 1 :&lt;span style=&quot;font-weight: normal&quot;&gt; Begin&lt;/span&gt;&lt;/font&gt;&lt;/li&gt;&lt;li&gt;&lt;font style=&quot;font-size: 20px&quot;&gt;Step 2 :&lt;span style=&quot;font-weight: normal&quot;&gt;&amp;nbsp;Input two numbers a and b&lt;/span&gt;&lt;/font&gt;&lt;/li&gt;&lt;li&gt;&lt;font style=&quot;font-size: 20px&quot;&gt;Step 3 :&lt;span style=&quot;font-weight: normal&quot;&gt;&amp;nbsp;Add the two numbers and store in sum&lt;/span&gt;&lt;/font&gt;&lt;/li&gt;&lt;li&gt;&lt;font style=&quot;font-size: 20px&quot;&gt;Step 4 :&lt;span style=&quot;font-weight: normal&quot;&gt;&amp;nbsp;Multiply the two numbers and store in product&lt;/span&gt;&lt;/font&gt;&lt;/li&gt;&lt;li&gt;&lt;font style=&quot;font-size: 20px&quot;&gt;Step 5 :&lt;span style=&quot;font-weight: normal&quot;&gt;&amp;nbsp;Print sum&lt;/span&gt;&lt;/font&gt;&lt;/li&gt;&lt;li&gt;&lt;font style=&quot;font-size: 20px&quot;&gt;Step 6 :&lt;span style=&quot;font-weight: normal&quot;&gt;&amp;nbsp;Print product&amp;nbsp;&lt;/span&gt;&lt;/font&gt;&lt;/li&gt;&lt;li&gt;&lt;font style=&quot;font-size: 20px&quot;&gt;Step 7 :&lt;span style=&quot;font-weight: normal&quot;&gt;&amp;nbsp;End&lt;/span&gt;&lt;/font&gt;&lt;/li&gt;&lt;li style=&quot;font-size: 20px&quot;&gt;&lt;/li&gt;&lt;/ul&gt;&lt;/h1&gt;" style="text;html=1;strokeColor=none;fillColor=none;spacing=5;spacingTop=-20;whiteSpace=wrap;overflow=hidden;rounded=0;" vertex="1" parent="1">
          <mxGeometry x="50" y="240" width="710" height="270" as="geometry" />
        </mxCell>
        <mxCell id="XuoVblz_ZNuMy1D8i6sK-34" value="&lt;h1&gt;&lt;font style=&quot;font-size: 24px&quot;&gt;4)&lt;/font&gt;&lt;font style=&quot;font-size: 20px&quot;&gt; &lt;/font&gt;&lt;font style=&quot;font-size: 24px&quot;&gt;Pseudocode&lt;/font&gt;&lt;/h1&gt;&lt;h1 style=&quot;font-size: 20px&quot;&gt;&lt;ul&gt;&lt;li style=&quot;text-align: justify&quot;&gt;BEGIN&lt;/li&gt;&lt;li style=&quot;text-align: justify&quot;&gt;&lt;span style=&quot;font-weight: 400&quot;&gt;Variable : a, b, sum, product&lt;/span&gt;&lt;/li&gt;&lt;li style=&quot;text-align: justify&quot;&gt;&lt;span style=&quot;font-weight: 400&quot;&gt;input a&lt;/span&gt;&lt;/li&gt;&lt;li style=&quot;text-align: justify&quot;&gt;&lt;span style=&quot;font-weight: 400&quot;&gt;input b&lt;/span&gt;&lt;/li&gt;&lt;li style=&quot;text-align: justify&quot;&gt;&lt;span style=&quot;font-weight: 400&quot;&gt;sum = a + b&lt;/span&gt;&lt;/li&gt;&lt;li style=&quot;text-align: justify&quot;&gt;&lt;span style=&quot;font-weight: 400&quot;&gt;output sum &#39; is the sum of &#39; a &#39;and&#39; b&lt;/span&gt;&lt;/li&gt;&lt;li style=&quot;text-align: justify&quot;&gt;&lt;span style=&quot;font-weight: 400&quot;&gt;product = a*b&lt;/span&gt;&lt;/li&gt;&lt;li style=&quot;text-align: justify&quot;&gt;&lt;span style=&quot;font-weight: 400&quot;&gt;output product &#39; is the product of &#39; a &#39;and&#39; b&lt;/span&gt;&lt;/li&gt;&lt;li style=&quot;text-align: justify&quot;&gt;END&lt;/li&gt;&lt;li style=&quot;font-size: 20px&quot;&gt;&lt;/li&gt;&lt;/ul&gt;&lt;/h1&gt;" style="text;html=1;strokeColor=none;fillColor=none;spacing=5;spacingTop=-20;whiteSpace=wrap;overflow=hidden;rounded=0;" vertex="1" parent="1">
          <mxGeometry x="50" y="1210" width="710" height="290" as="geometry" />
        </mxCell>
        <mxCell id="XuoVblz_ZNuMy1D8i6sK-35" value="&lt;span style=&quot;font-size: 16px&quot;&gt;Begin&lt;/span&gt;" style="ellipse;whiteSpace=wrap;html=1;fontSize=24;" vertex="1" parent="1">
          <mxGeometry x="213" y="537" width="100" height="40" as="geometry" />
        </mxCell>
        <mxCell id="XuoVblz_ZNuMy1D8i6sK-36" value="&lt;span style=&quot;font-size: 16px&quot;&gt;End&lt;/span&gt;" style="ellipse;whiteSpace=wrap;html=1;fontSize=24;" vertex="1" parent="1">
          <mxGeometry x="211" y="935" width="100" height="40" as="geometry" />
        </mxCell>
      </root>
    </mxGraphModel>
  </diagram>
</mxfile>
